<svg width="123" height="32" viewBox="0 0 123 32" fill="none" xmlns="http://www.w3.org/2000/svg">
<g clip-path="url(#clip0_284_2186)">
<path d="M25.5063 9.68827C22.3584 6.50509 19.3848 4.26672 15.4266 4.26672C9.14826 4.26672 4.05859 9.51977 4.05859 15.9997C4.05859 22.4796 9.14826 27.7328 15.4266 27.7328C21.705 27.7328 25.8474 21.788 31.4557 15.9997C30.7983 15.3256 30.1672 14.6572 29.5561 14.0016" stroke="url(#paint0_linear_284_2186)" stroke-width="7"/>
<path d="M37.4044 22.3118C40.5523 25.4949 43.5259 27.7333 47.4841 27.7333C53.7625 27.7333 58.8521 22.4803 58.8521 16.0003C58.8521 9.52038 53.7625 4.26733 47.4841 4.26733C41.2057 4.26733 37.0634 10.2121 31.4551 16.0003C32.1124 16.6745 32.7436 17.3428 33.3546 17.9985" stroke="url(#paint1_linear_284_2186)" stroke-width="7"/>
</g>
<path d="M68.992 25V8.2H72.88V25H68.992ZM80.347 25V11.368H74.971V8.2H89.611V11.368H84.235V25H80.347ZM95.2789 14.968H103.367V17.992H95.2789V14.968ZM95.5669 21.88H104.711V25H91.7029V8.2H104.399V11.32H95.5669V21.88ZM113.325 25.288C111.981 25.288 110.693 25.112 109.461 24.76C108.229 24.392 107.237 23.92 106.485 23.344L107.805 20.416C108.525 20.928 109.373 21.352 110.349 21.688C111.341 22.008 112.341 22.168 113.349 22.168C114.117 22.168 114.733 22.096 115.197 21.952C115.677 21.792 116.029 21.576 116.253 21.304C116.477 21.032 116.589 20.72 116.589 20.368C116.589 19.92 116.413 19.568 116.061 19.312C115.709 19.04 115.245 18.824 114.669 18.664C114.093 18.488 113.453 18.328 112.749 18.184C112.061 18.024 111.365 17.832 110.661 17.608C109.973 17.384 109.341 17.096 108.765 16.744C108.189 16.392 107.717 15.928 107.349 15.352C106.997 14.776 106.821 14.04 106.821 13.144C106.821 12.184 107.077 11.312 107.589 10.528C108.117 9.728 108.901 9.096 109.941 8.632C110.997 8.152 112.317 7.912 113.901 7.912C114.957 7.912 115.997 8.04 117.021 8.296C118.045 8.536 118.949 8.904 119.733 9.4L118.533 12.352C117.749 11.904 116.965 11.576 116.181 11.368C115.397 11.144 114.629 11.032 113.877 11.032C113.125 11.032 112.509 11.12 112.029 11.296C111.549 11.472 111.205 11.704 110.997 11.992C110.789 12.264 110.685 12.584 110.685 12.952C110.685 13.384 110.861 13.736 111.213 14.008C111.565 14.264 112.029 14.472 112.605 14.632C113.181 14.792 113.813 14.952 114.501 15.112C115.205 15.272 115.901 15.456 116.589 15.664C117.293 15.872 117.933 16.152 118.509 16.504C119.085 16.856 119.549 17.32 119.901 17.896C120.269 18.472 120.453 19.2 120.453 20.08C120.453 21.024 120.189 21.888 119.661 22.672C119.133 23.456 118.341 24.088 117.285 24.568C116.245 25.048 114.925 25.288 113.325 25.288Z" fill="white"/>
<defs>
<linearGradient id="paint0_linear_284_2186" x1="31.4557" y1="15.9997" x2="4.05859" y2="15.9997" gradientUnits="userSpaceOnUse">
<stop stop-color="#2593B7"/>
<stop offset="0.185" stop-color="#2490B4"/>
<stop offset="0.725" stop-color="#133852"/>
</linearGradient>
<linearGradient id="paint1_linear_284_2186" x1="31.4551" y1="16.0003" x2="58.8521" y2="16.0003" gradientUnits="userSpaceOnUse">
<stop stop-color="#2593B7"/>
<stop offset="0.185" stop-color="#2490B4"/>
<stop offset="0.725" stop-color="#133852"/>
</linearGradient>
<clipPath id="clip0_284_2186">
<rect width="62.9118" height="32" fill="white"/>
</clipPath>
</defs>
</svg>
