<svg width="537" height="75" viewBox="0 0 537 75" fill="none" xmlns="http://www.w3.org/2000/svg">
<path d="M59.1023 22.245C51.7487 15.0555 44.8023 10 35.556 10C20.8895 10 9 21.8644 9 36.5C9 51.1354 20.8895 63 35.556 63C50.2224 63 59.899 49.5733 73 36.5C71.4645 34.9774 69.9901 33.4678 68.5627 31.9869" stroke="url(#paint0_linear_301_2840)" stroke-width="16.5392"/>
<path d="M86.8977 50.755C94.2513 57.9444 101.198 63 110.444 63C125.11 63 137 51.1356 137 36.5C137 21.8645 125.11 10 110.444 10C95.7776 10 86.101 23.4267 73 36.5C74.5355 38.0226 76.0099 39.5321 77.4373 41.0131" stroke="url(#paint1_linear_301_2840)" stroke-width="16.5392"/>
<path d="M161.935 5.2969V29H158.722V5.2969H161.935ZM170.234 29H167.134V10.3248H169.818L169.969 12.1394H170.083C171.091 11.3833 172.137 10.8289 173.22 10.476C174.329 10.1232 175.564 9.94679 176.925 9.94679C178.992 9.94679 180.554 10.4634 181.613 11.4968C182.697 12.5301 183.238 14.0548 183.238 16.071V29H180.138V16.4491C180.138 15.1889 179.786 14.2564 179.08 13.6516C178.374 13.0467 177.291 12.7443 175.829 12.7443C174.921 12.7443 173.989 12.8955 173.031 13.1979C172.099 13.4752 171.166 13.891 170.234 14.4455V29ZM188.978 12.9711H186.181V10.3248H188.978V9.87118C188.978 7.70376 189.457 6.10339 190.415 5.07008C191.372 4.01157 192.821 3.48231 194.762 3.48231C195.216 3.48231 195.644 3.50751 196.047 3.55792C196.476 3.58312 196.955 3.65873 197.484 3.78474V6.43102C197.207 6.35541 196.866 6.30501 196.463 6.27981C196.085 6.2294 195.707 6.2042 195.329 6.2042C194.145 6.2042 193.3 6.46883 192.796 6.99808C192.317 7.52734 192.078 8.45984 192.078 9.79558V10.3248H196.917V12.9711H192.078V29H188.978V12.9711ZM204.1 7.07369H200.773V3.86035H204.1V7.07369ZM203.986 29H200.886V10.3248H203.986V29ZM212.062 29H208.962V10.3248H211.646L211.797 12.1394H211.911C212.919 11.3833 213.965 10.8289 215.048 10.476C216.157 10.1232 217.392 9.94679 218.753 9.94679C220.82 9.94679 222.382 10.4634 223.441 11.4968C224.525 12.5301 225.066 14.0548 225.066 16.071V29H221.966V16.4491C221.966 15.1889 221.614 14.2564 220.908 13.6516C220.202 13.0467 219.119 12.7443 217.657 12.7443C216.75 12.7443 215.817 12.8955 214.859 13.1979C213.927 13.4752 212.994 13.891 212.062 14.4455V29ZM233.108 7.07369H229.781V3.86035H233.108V7.07369ZM232.994 29H229.894V10.3248H232.994V29ZM248.943 26.0891V28.6976C248.539 28.874 247.985 29.0126 247.279 29.1134C246.599 29.2394 245.943 29.3024 245.313 29.3024C243.045 29.3024 241.42 28.7984 240.437 27.7903C239.479 26.7822 239 25.0432 239 22.5733V12.9711H236.203V10.3248H239.038L239.529 5.78835H242.1V10.3248H248.754V12.9711H242.1V22.4599C242.1 23.9973 242.377 25.0432 242.932 25.5976C243.511 26.1521 244.52 26.4293 245.956 26.4293C246.41 26.4293 246.926 26.3915 247.506 26.3159C248.111 26.2403 248.59 26.1647 248.943 26.0891ZM253.709 32.3268C254.667 32.3268 255.385 32.1125 255.864 31.6841C256.368 31.2808 256.898 30.2979 257.452 28.7354L249.816 10.3248H253.294L259.04 25.6354L264.484 10.3248H267.81L260.174 30.2475C259.493 32.0621 258.7 33.3223 257.792 34.0279C256.885 34.7588 255.713 35.1242 254.276 35.1242C253.848 35.1242 253.394 35.099 252.916 35.0486C252.462 34.9982 252.008 34.9352 251.555 34.8596V32.1377C251.832 32.2133 252.134 32.2637 252.462 32.2889C252.815 32.3141 253.231 32.3268 253.709 32.3268ZM285.707 5.2969V8.20781H277.844V29H274.63V8.20781H266.767V5.2969H285.707ZM299.444 25.3708V27.9793C298.789 28.3321 297.819 28.6472 296.533 28.9244C295.273 29.1764 293.988 29.3024 292.677 29.3024C289.754 29.3024 287.662 28.5464 286.402 27.0342C285.142 25.522 284.512 23.027 284.512 19.549C284.512 16.1971 285.167 13.765 286.477 12.2528C287.788 10.7155 289.88 9.94679 292.753 9.94679C295.424 9.94679 297.34 10.5517 298.499 11.7614C299.658 12.9459 300.238 14.9369 300.238 17.7344C300.238 18.2385 300.226 18.7047 300.2 19.1332C300.175 19.5616 300.125 20.0783 300.049 20.6831H287.649C287.675 22.7497 288.09 24.2241 288.897 25.1062C289.729 25.9883 291.153 26.4293 293.169 26.4293C294.253 26.4293 295.387 26.3285 296.571 26.1269C297.756 25.9253 298.713 25.6732 299.444 25.3708ZM297.403 17.3186C297.378 15.6552 297.012 14.4833 296.307 13.8028C295.601 13.0971 294.416 12.7443 292.753 12.7443C290.888 12.7443 289.565 13.1475 288.784 13.954C288.027 14.7353 287.649 16.1214 287.649 18.1125H297.365C297.365 18.062 297.365 17.9486 297.365 17.7722C297.39 17.5706 297.403 17.4194 297.403 17.3186ZM317.29 25.2952V27.9037C316.659 28.3069 315.714 28.6472 314.454 28.9244C313.219 29.1764 311.921 29.3024 310.56 29.3024C307.914 29.3024 306.049 28.5842 304.965 27.1476C303.907 25.7111 303.378 23.2034 303.378 19.6246C303.378 16.1214 304.071 13.639 305.457 12.1772C306.843 10.6903 309.199 9.94679 312.526 9.94679C313.257 9.94679 313.912 9.972 314.492 10.0224C315.097 10.0476 315.866 10.1232 316.798 10.2492V13.0089C315.866 12.8829 315.097 12.8073 314.492 12.7821C313.912 12.7569 313.257 12.7443 312.526 12.7443C310.157 12.7443 308.557 13.2357 307.725 14.2186C306.893 15.1763 306.478 16.9783 306.478 19.6246C306.478 22.2709 306.805 24.0729 307.46 25.0306C308.116 25.9631 309.376 26.4293 311.241 26.4293C312.274 26.4293 313.345 26.3285 314.454 26.1269C315.563 25.9001 316.508 25.6228 317.29 25.2952ZM323.96 29H320.86V3.86035H323.96V11.837C325.094 11.2069 326.216 10.7407 327.325 10.4382C328.459 10.1106 329.58 9.94679 330.689 9.94679C332.756 9.94679 334.306 10.4634 335.339 11.4968C336.398 12.5301 336.927 14.0548 336.927 16.071V29H333.827V16.4491C333.827 15.1637 333.487 14.2312 332.806 13.6516C332.151 13.0467 331.118 12.7443 329.706 12.7443C328.774 12.7443 327.804 12.8703 326.795 13.1223C325.813 13.3744 324.867 13.7272 323.96 14.1808V29ZM174.448 65.9757V69H158.722V45.2969H174.108V48.2078H161.935V55.4662H172.709V58.3015H161.935V65.9757H174.448ZM181.383 69H178.283V50.3248H180.967L181.118 52.1394H181.232C182.24 51.3833 183.286 50.8289 184.37 50.476C185.478 50.1232 186.713 49.9468 188.074 49.9468C190.141 49.9468 191.703 50.4634 192.762 51.4968C193.846 52.5301 194.388 54.0548 194.388 56.071V69H191.288V56.4491C191.288 55.1889 190.935 54.2564 190.229 53.6516C189.523 53.0467 188.44 52.7443 186.978 52.7443C186.071 52.7443 185.138 52.8955 184.181 53.1979C183.248 53.4752 182.316 53.891 181.383 54.4455V69ZM209.957 66.0891V68.6976C209.554 68.874 209 69.0126 208.294 69.1134C207.613 69.2394 206.958 69.3024 206.328 69.3024C204.06 69.3024 202.434 68.7984 201.451 67.7903C200.494 66.7822 200.015 65.0432 200.015 62.5733V52.9711H197.217V50.3248H200.053L200.544 45.7884H203.115V50.3248H209.768V52.9711H203.115V62.4599C203.115 63.9973 203.392 65.0432 203.946 65.5976C204.526 66.1521 205.534 66.4293 206.971 66.4293C207.424 66.4293 207.941 66.3915 208.521 66.3159C209.126 66.2403 209.604 66.1647 209.957 66.0891ZM226.827 65.3708V67.9793C226.171 68.3321 225.201 68.6472 223.916 68.9244C222.656 69.1764 221.37 69.3024 220.06 69.3024C217.136 69.3024 215.044 68.5464 213.784 67.0342C212.524 65.522 211.894 63.027 211.894 59.549C211.894 56.1971 212.549 53.765 213.86 52.2528C215.17 50.7155 217.262 49.9468 220.135 49.9468C222.807 49.9468 224.722 50.5517 225.882 51.7614C227.041 52.9459 227.621 54.9369 227.621 57.7344C227.621 58.2385 227.608 58.7047 227.583 59.1332C227.558 59.5616 227.507 60.0783 227.432 60.6831H215.032C215.057 62.7497 215.473 64.2241 216.279 65.1062C217.111 65.9883 218.535 66.4293 220.551 66.4293C221.635 66.4293 222.769 66.3285 223.954 66.1269C225.138 65.9253 226.096 65.6732 226.827 65.3708ZM224.785 57.3186C224.76 55.6552 224.395 54.4833 223.689 53.8028C222.983 53.0971 221.799 52.7443 220.135 52.7443C218.27 52.7443 216.947 53.1475 216.166 53.954C215.41 54.7353 215.032 56.1214 215.032 58.1125H224.747C224.747 58.062 224.747 57.9486 224.747 57.7722C224.773 57.5706 224.785 57.4194 224.785 57.3186ZM234.729 69H231.63V50.3248H234.465L234.616 51.9126H234.767C235.75 51.3329 236.733 50.9045 237.716 50.6273C238.699 50.3248 239.669 50.1736 240.627 50.1736C241.03 50.1736 241.295 50.1736 241.421 50.1736C241.572 50.1736 241.685 50.1862 241.761 50.2114V53.1979C241.585 53.1475 241.358 53.1223 241.081 53.1223C240.828 53.0971 240.425 53.0845 239.871 53.0845C238.963 53.0845 238.069 53.1979 237.187 53.4248C236.33 53.6264 235.511 53.9414 234.729 54.3699V69ZM248.057 74.7462H244.957V50.3248H247.641L247.83 51.9882H247.943C248.725 51.3329 249.657 50.8289 250.741 50.476C251.825 50.1232 252.984 49.9468 254.219 49.9468C256.764 49.9468 258.579 50.7029 259.663 52.215C260.772 53.7272 261.326 56.1971 261.326 59.6246C261.326 63.0522 260.658 65.522 259.322 67.0342C257.987 68.5464 255.756 69.3024 252.631 69.3024C251.699 69.3024 250.842 69.2394 250.06 69.1134C249.304 68.9874 248.636 68.7984 248.057 68.5464V74.7462ZM258.226 59.6246C258.226 57.0539 257.861 55.2646 257.13 54.2564C256.424 53.2483 255.088 52.7443 253.123 52.7443C252.19 52.7443 251.295 52.8829 250.438 53.1601C249.607 53.4122 248.813 53.7902 248.057 54.2943V65.6732C248.687 65.9253 249.33 66.1143 249.985 66.2403C250.665 66.3663 251.421 66.4293 252.253 66.4293C254.597 66.4293 256.172 65.9505 256.979 64.9928C257.81 64.0099 258.226 62.2205 258.226 59.6246ZM268.509 69H265.409V50.3248H268.245L268.396 51.9126H268.547C269.53 51.3329 270.513 50.9045 271.496 50.6273C272.479 50.3248 273.449 50.1736 274.407 50.1736C274.81 50.1736 275.075 50.1736 275.201 50.1736C275.352 50.1736 275.465 50.1862 275.541 50.2114V53.1979C275.364 53.1475 275.138 53.1223 274.86 53.1223C274.608 53.0971 274.205 53.0845 273.651 53.0845C272.743 53.0845 271.849 53.1979 270.967 53.4248C270.11 53.6264 269.291 53.9414 268.509 54.3699V69ZM281.95 47.0737H278.623V43.8604H281.95V47.0737ZM281.837 69H278.737V50.3248H281.837V69ZM293.249 52.7443C291.636 52.7443 290.514 52.9333 289.884 53.3113C289.279 53.6894 288.977 54.4581 288.977 55.6174C288.977 56.2223 289.115 56.6885 289.393 57.0161C289.695 57.3186 290.161 57.5202 290.791 57.621L295.592 58.3393C297.105 58.5661 298.163 59.045 298.768 59.7758C299.373 60.4815 299.675 61.603 299.675 63.1404C299.675 65.3078 299.159 66.883 298.125 67.8659C297.092 68.8236 295.378 69.3024 292.984 69.3024C291.547 69.3024 290.212 69.2268 288.977 69.0756C287.742 68.9244 286.721 68.7228 285.915 68.4707V65.5598C286.721 65.8119 287.704 66.0261 288.863 66.2025C290.048 66.3537 291.258 66.4293 292.492 66.4293C294.055 66.4293 295.126 66.2025 295.706 65.7489C296.285 65.2952 296.575 64.4887 296.575 63.3294C296.575 62.5985 296.411 62.0693 296.084 61.7416C295.756 61.3888 295.164 61.1494 294.307 61.0234L289.506 60.3051C288.296 60.1287 287.389 59.6624 286.784 58.9063C286.204 58.1503 285.902 57.0539 285.877 55.6174C285.877 53.6516 286.456 52.215 287.616 51.3077C288.8 50.4004 290.615 49.9468 293.06 49.9468C294.068 49.9468 294.975 49.972 295.781 50.0224C296.613 50.0728 297.483 50.1736 298.39 50.3248V53.0845C297.735 52.9837 296.966 52.9081 296.084 52.8577C295.202 52.7821 294.257 52.7443 293.249 52.7443ZM317.46 65.3708V67.9793C316.805 68.3321 315.835 68.6472 314.549 68.9244C313.289 69.1764 312.004 69.3024 310.693 69.3024C307.77 69.3024 305.678 68.5464 304.418 67.0342C303.158 65.522 302.528 63.027 302.528 59.549C302.528 56.1971 303.183 53.765 304.493 52.2528C305.804 50.7155 307.896 49.9468 310.769 49.9468C313.44 49.9468 315.356 50.5517 316.515 51.7614C317.674 52.9459 318.254 54.9369 318.254 57.7344C318.254 58.2385 318.242 58.7047 318.216 59.1332C318.191 59.5616 318.141 60.0783 318.065 60.6831H305.665C305.691 62.7497 306.106 64.2241 306.913 65.1062C307.745 65.9883 309.169 66.4293 311.185 66.4293C312.268 66.4293 313.403 66.3285 314.587 66.1269C315.772 65.9253 316.729 65.6732 317.46 65.3708ZM315.419 57.3186C315.394 55.6552 315.028 54.4833 314.322 53.8028C313.617 53.0971 312.432 52.7443 310.769 52.7443C308.904 52.7443 307.581 53.1475 306.799 53.954C306.043 54.7353 305.665 56.1214 305.665 58.1125H315.381C315.381 58.062 315.381 57.9486 315.381 57.7722C315.406 57.5706 315.419 57.4194 315.419 57.3186ZM338.099 59.0576L332.353 57.6966C330.765 57.3186 329.618 56.6759 328.913 55.7686C328.207 54.8361 327.854 53.5508 327.854 51.9126C327.854 49.5183 328.535 47.7542 329.896 46.62C331.282 45.4859 333.424 44.9189 336.322 44.9189C337.532 44.9189 338.616 44.9819 339.573 45.1079C340.556 45.2087 341.464 45.3725 342.295 45.5993V48.5102C341.237 48.2582 340.229 48.0818 339.271 47.981C338.313 47.8802 337.318 47.8298 336.285 47.8298C334.344 47.8298 332.983 48.1196 332.202 48.6993C331.42 49.2537 331.03 50.2492 331.03 51.6858C331.03 52.5931 331.206 53.2861 331.559 53.765C331.937 54.2186 332.542 54.5463 333.374 54.7479L339.082 56.1088C341.098 56.5877 342.434 57.2682 343.089 58.1503C343.77 59.0071 344.11 60.3429 344.11 62.1575C344.11 64.7534 343.429 66.5931 342.069 67.6769C340.733 68.7606 338.603 69.3024 335.68 69.3024C334.142 69.3024 332.655 69.2016 331.219 69C329.807 68.7984 328.686 68.5338 327.854 68.2061V65.1818C329.039 65.5346 330.299 65.8119 331.635 66.0135C332.97 66.1899 334.319 66.2781 335.68 66.2781C337.57 66.2781 338.893 66.0009 339.649 65.4464C340.405 64.892 340.783 63.8209 340.783 62.2331C340.783 61.2502 340.594 60.5445 340.216 60.1161C339.863 59.6624 339.158 59.3096 338.099 59.0576ZM364.18 59.6246C364.18 63.153 363.525 65.648 362.215 67.1098C360.929 68.5716 358.711 69.3024 355.561 69.3024C352.31 69.3024 350.054 68.5968 348.794 67.1854C347.534 65.7741 346.904 63.2538 346.904 59.6246C346.904 56.071 347.547 53.576 348.832 52.1394C350.142 50.6777 352.385 49.9468 355.561 49.9468C358.812 49.9468 361.055 50.6525 362.29 52.0638C363.55 53.4752 364.18 55.9954 364.18 59.6246ZM350.004 59.5868C350.004 62.3591 350.369 64.1989 351.1 65.1062C351.831 65.9883 353.318 66.4293 355.561 66.4293C357.728 66.4293 359.19 65.9631 359.946 65.0306C360.702 64.0729 361.08 62.2583 361.08 59.5868C361.08 56.8145 360.715 54.9873 359.984 54.1052C359.278 53.1979 357.804 52.7443 355.561 52.7443C353.368 52.7443 351.894 53.2105 351.138 54.143C350.382 55.0755 350.004 56.8901 350.004 59.5868ZM371.4 43.8604V69H368.3V43.8604H371.4ZM382.433 69.3024C380.367 69.3024 378.817 68.7858 377.784 67.7525C376.75 66.7192 376.234 65.1692 376.234 63.1026V50.3248H379.334V62.7245C379.334 64.0099 379.661 64.9424 380.316 65.522C380.972 66.1017 382.005 66.3915 383.416 66.3915C384.273 66.3915 385.13 66.2907 385.987 66.0891C386.869 65.8623 387.751 65.522 388.633 65.0684V50.3248H391.733V69H388.898L388.747 67.45H388.671C387.361 68.1305 386.226 68.6094 385.269 68.8866C384.311 69.1638 383.366 69.3024 382.433 69.3024ZM407.69 66.0891V68.6976C407.287 68.874 406.732 69.0126 406.026 69.1134C405.346 69.2394 404.691 69.3024 404.061 69.3024C401.792 69.3024 400.167 68.7984 399.184 67.7903C398.226 66.7822 397.747 65.0432 397.747 62.5733V52.9711H394.95V50.3248H397.785L398.277 45.7884H400.847V50.3248H407.501V52.9711H400.847V62.4599C400.847 63.9973 401.124 65.0432 401.679 65.5976C402.259 66.1521 403.267 66.4293 404.703 66.4293C405.157 66.4293 405.674 66.3915 406.253 66.3159C406.858 66.2403 407.337 66.1647 407.69 66.0891ZM413.969 47.0737H410.642V43.8604H413.969V47.0737ZM413.855 69H410.755V50.3248H413.855V69ZM435.247 59.6246C435.247 63.153 434.592 65.648 433.282 67.1098C431.996 68.5716 429.778 69.3024 426.628 69.3024C423.377 69.3024 421.121 68.5968 419.861 67.1854C418.601 65.7741 417.971 63.2538 417.971 59.6246C417.971 56.071 418.614 53.576 419.899 52.1394C421.21 50.6777 423.453 49.9468 426.628 49.9468C429.879 49.9468 432.122 50.6525 433.357 52.0638C434.617 53.4752 435.247 55.9954 435.247 59.6246ZM421.071 59.5868C421.071 62.3591 421.436 64.1989 422.167 65.1062C422.898 65.9883 424.385 66.4293 426.628 66.4293C428.796 66.4293 430.257 65.9631 431.013 65.0306C431.769 64.0729 432.147 62.2583 432.147 59.5868C432.147 56.8145 431.782 54.9873 431.051 54.1052C430.345 53.1979 428.871 52.7443 426.628 52.7443C424.435 52.7443 422.961 53.2105 422.205 54.143C421.449 55.0755 421.071 56.8901 421.071 59.5868ZM442.467 69H439.367V50.3248H442.051L442.202 52.1394H442.316C443.324 51.3833 444.37 50.8289 445.453 50.476C446.562 50.1232 447.797 49.9468 449.158 49.9468C451.225 49.9468 452.787 50.4634 453.846 51.4968C454.929 52.5301 455.471 54.0548 455.471 56.071V69H452.371V56.4491C452.371 55.1889 452.019 54.2564 451.313 53.6516C450.607 53.0467 449.523 52.7443 448.062 52.7443C447.154 52.7443 446.222 52.8955 445.264 53.1979C444.332 53.4752 443.399 53.891 442.467 54.4455V69ZM466.726 52.7443C465.113 52.7443 463.992 52.9333 463.361 53.3113C462.757 53.6894 462.454 54.4581 462.454 55.6174C462.454 56.2223 462.593 56.6885 462.87 57.0161C463.172 57.3186 463.639 57.5202 464.269 57.621L469.07 58.3393C470.582 58.5661 471.641 59.045 472.245 59.7758C472.85 60.4815 473.153 61.603 473.153 63.1404C473.153 65.3078 472.636 66.883 471.603 67.8659C470.569 68.8236 468.856 69.3024 466.461 69.3024C465.025 69.3024 463.689 69.2268 462.454 69.0756C461.219 68.9244 460.199 68.7228 459.392 68.4707V65.5598C460.199 65.8119 461.181 66.0261 462.341 66.2025C463.525 66.3537 464.735 66.4293 465.97 66.4293C467.532 66.4293 468.604 66.2025 469.183 65.7489C469.763 65.2952 470.053 64.4887 470.053 63.3294C470.053 62.5985 469.889 62.0693 469.561 61.7416C469.234 61.3888 468.641 61.1494 467.785 61.0234L462.983 60.3051C461.774 60.1287 460.866 59.6624 460.262 58.9063C459.682 58.1503 459.379 57.0539 459.354 55.6174C459.354 53.6516 459.934 52.215 461.093 51.3077C462.278 50.4004 464.092 49.9468 466.537 49.9468C467.545 49.9468 468.452 49.972 469.259 50.0224C470.091 50.0728 470.96 50.1736 471.867 50.3248V53.0845C471.212 52.9837 470.443 52.9081 469.561 52.8577C468.679 52.7821 467.734 52.7443 466.726 52.7443Z" fill="black"/>
<defs>
<linearGradient id="paint0_linear_301_2840" x1="73" y1="36.5" x2="9" y2="36.5" gradientUnits="userSpaceOnUse">
<stop stop-color="#2593B7"/>
<stop offset="0.185" stop-color="#2490B4"/>
<stop offset="0.725" stop-color="#133852"/>
</linearGradient>
<linearGradient id="paint1_linear_301_2840" x1="73" y1="36.5" x2="137" y2="36.5" gradientUnits="userSpaceOnUse">
<stop stop-color="#2593B7"/>
<stop offset="0.185" stop-color="#2490B4"/>
<stop offset="0.725" stop-color="#133852"/>
</linearGradient>
</defs>
</svg>
