<svg width="238" height="34" viewBox="0 0 238 34" fill="none" xmlns="http://www.w3.org/2000/svg">
<g clip-path="url(#clip0_300_2757)">
<path d="M25.1369 10.0827C22.0346 7.09847 19.1041 5 15.2033 5C9.0159 5 4 9.92473 4 15.9997C4 22.0746 9.0159 26.9994 15.2033 26.9994C21.3907 26.9994 25.473 21.4262 31 15.9997C30.3522 15.3677 29.7302 14.7411 29.128 14.1264" stroke="url(#paint0_linear_300_2757)" stroke-width="7"/>
<path d="M36.8631 21.9173C39.9654 24.9015 42.8959 27 46.7967 27C52.9841 27 58 22.0753 58 16.0003C58 9.92534 52.9841 5.00061 46.7967 5.00061C40.6093 5.00061 36.527 10.5738 31 16.0003C31.6478 16.6323 32.2698 17.2589 32.872 17.8736" stroke="url(#paint1_linear_300_2757)" stroke-width="7"/>
</g>
<path d="M67.504 13V1.8H69.584V13H67.504ZM77.2694 4.36C77.952 4.36 78.56 4.49333 79.0934 4.76C79.6374 5.02667 80.064 5.43733 80.3734 5.992C80.6827 6.536 80.8374 7.24 80.8374 8.104V13H78.8374V8.36C78.8374 7.60267 78.656 7.03733 78.2934 6.664C77.9414 6.29067 77.4454 6.104 76.8054 6.104C76.336 6.104 75.92 6.2 75.5574 6.392C75.1947 6.584 74.912 6.872 74.7094 7.256C74.5174 7.62933 74.4214 8.104 74.4214 8.68V13H72.4214V4.456H74.3254V6.76L73.9894 6.056C74.288 5.512 74.72 5.096 75.2854 4.808C75.8614 4.50933 76.5227 4.36 77.2694 4.36ZM83.6465 13V3.976C83.6465 3.08 83.9078 2.36533 84.4305 1.832C84.9638 1.288 85.7212 1.016 86.7025 1.016C87.0545 1.016 87.3852 1.05333 87.6945 1.128C88.0145 1.20267 88.2812 1.32 88.4945 1.48L87.9505 2.984C87.8012 2.86667 87.6305 2.78133 87.4385 2.728C87.2465 2.664 87.0492 2.632 86.8465 2.632C86.4305 2.632 86.1158 2.74933 85.9025 2.984C85.6892 3.208 85.5825 3.54933 85.5825 4.008V4.968L85.6465 5.864V13H83.6465ZM82.2385 6.12V4.52H87.9345V6.12H82.2385ZM89.3425 13V4.456H91.3425V13H89.3425ZM90.3505 3.048C89.9772 3.048 89.6678 2.93067 89.4225 2.696C89.1878 2.46133 89.0705 2.17867 89.0705 1.848C89.0705 1.50667 89.1878 1.224 89.4225 0.999999C89.6678 0.765333 89.9772 0.648 90.3505 0.648C90.7238 0.648 91.0278 0.76 91.2625 0.983999C91.5078 1.19733 91.6305 1.46933 91.6305 1.8C91.6305 2.152 91.5132 2.45067 91.2785 2.696C91.0438 2.93067 90.7345 3.048 90.3505 3.048ZM98.8163 4.36C99.4989 4.36 100.107 4.49333 100.64 4.76C101.184 5.02667 101.611 5.43733 101.92 5.992C102.23 6.536 102.384 7.24 102.384 8.104V13H100.384V8.36C100.384 7.60267 100.203 7.03733 99.8403 6.664C99.4883 6.29067 98.9923 6.104 98.3523 6.104C97.8829 6.104 97.4669 6.2 97.1043 6.392C96.7416 6.584 96.4589 6.872 96.2563 7.256C96.0643 7.62933 95.9683 8.104 95.9683 8.68V13H93.9683V4.456H95.8723V6.76L95.5363 6.056C95.8349 5.512 96.2669 5.096 96.8323 4.808C97.4083 4.50933 98.0696 4.36 98.8163 4.36ZM104.921 13V4.456H106.921V13H104.921ZM105.929 3.048C105.556 3.048 105.247 2.93067 105.001 2.696C104.767 2.46133 104.649 2.17867 104.649 1.848C104.649 1.50667 104.767 1.224 105.001 0.999999C105.247 0.765333 105.556 0.648 105.929 0.648C106.303 0.648 106.607 0.76 106.841 0.983999C107.087 1.19733 107.209 1.46933 107.209 1.8C107.209 2.152 107.092 2.45067 106.857 2.696C106.623 2.93067 106.313 3.048 105.929 3.048ZM112.762 13.112C111.824 13.112 111.098 12.872 110.586 12.392C110.074 11.9013 109.818 11.1813 109.818 10.232V2.568H111.818V10.184C111.818 10.5893 111.92 10.904 112.122 11.128C112.336 11.352 112.629 11.464 113.002 11.464C113.45 11.464 113.824 11.3467 114.122 11.112L114.682 12.536C114.448 12.728 114.16 12.872 113.818 12.968C113.477 13.064 113.125 13.112 112.762 13.112ZM108.41 6.12V4.52H114.106V6.12H108.41ZM116.875 16.216C116.459 16.216 116.043 16.1467 115.627 16.008C115.211 15.8693 114.865 15.6773 114.587 15.432L115.387 13.96C115.59 14.1413 115.819 14.2853 116.075 14.392C116.331 14.4987 116.593 14.552 116.859 14.552C117.222 14.552 117.515 14.4613 117.739 14.28C117.963 14.0987 118.171 13.7947 118.363 13.368L118.859 12.248L119.019 12.008L122.251 4.456H124.171L120.171 13.688C119.905 14.328 119.606 14.8347 119.275 15.208C118.955 15.5813 118.593 15.8427 118.187 15.992C117.793 16.1413 117.355 16.216 116.875 16.216ZM118.635 13.304L114.779 4.456H116.859L119.995 11.832L118.635 13.304ZM127.417 13V3.56H123.705V1.8H133.209V3.56H129.497V13H127.417ZM137.719 13.112C136.769 13.112 135.937 12.9253 135.223 12.552C134.519 12.168 133.969 11.6453 133.575 10.984C133.191 10.3227 132.999 9.57067 132.999 8.728C132.999 7.87467 133.185 7.12267 133.559 6.472C133.943 5.81067 134.465 5.29333 135.127 4.92C135.799 4.54667 136.561 4.36 137.415 4.36C138.247 4.36 138.988 4.54133 139.639 4.904C140.289 5.26667 140.801 5.77867 141.175 6.44C141.548 7.10133 141.735 7.88 141.735 8.776C141.735 8.86133 141.729 8.95733 141.719 9.064C141.719 9.17067 141.713 9.272 141.703 9.368H134.583V8.04H140.647L139.863 8.456C139.873 7.96533 139.772 7.53333 139.559 7.16C139.345 6.78667 139.052 6.49333 138.679 6.28C138.316 6.06667 137.895 5.96 137.415 5.96C136.924 5.96 136.492 6.06667 136.119 6.28C135.756 6.49333 135.468 6.792 135.255 7.176C135.052 7.54933 134.951 7.992 134.951 8.504V8.824C134.951 9.336 135.068 9.78933 135.303 10.184C135.537 10.5787 135.868 10.8827 136.295 11.096C136.721 11.3093 137.212 11.416 137.767 11.416C138.247 11.416 138.679 11.3413 139.063 11.192C139.447 11.0427 139.788 10.808 140.087 10.488L141.159 11.72C140.775 12.168 140.289 12.5147 139.703 12.76C139.127 12.9947 138.465 13.112 137.719 13.112ZM147.576 13.112C146.68 13.112 145.88 12.9253 145.176 12.552C144.482 12.168 143.938 11.6453 143.544 10.984C143.149 10.3227 142.952 9.57067 142.952 8.728C142.952 7.87467 143.149 7.12267 143.544 6.472C143.938 5.81067 144.482 5.29333 145.176 4.92C145.88 4.54667 146.68 4.36 147.576 4.36C148.408 4.36 149.138 4.53067 149.768 4.872C150.408 5.20267 150.893 5.69333 151.224 6.344L149.688 7.24C149.432 6.83467 149.117 6.536 148.744 6.344C148.381 6.152 147.986 6.056 147.56 6.056C147.069 6.056 146.626 6.16267 146.232 6.376C145.837 6.58933 145.528 6.89867 145.304 7.304C145.08 7.69867 144.968 8.17333 144.968 8.728C144.968 9.28267 145.08 9.76267 145.304 10.168C145.528 10.5627 145.837 10.8667 146.232 11.08C146.626 11.2933 147.069 11.4 147.56 11.4C147.986 11.4 148.381 11.304 148.744 11.112C149.117 10.92 149.432 10.6213 149.688 10.216L151.224 11.112C150.893 11.752 150.408 12.248 149.768 12.6C149.138 12.9413 148.408 13.112 147.576 13.112ZM157.723 4.36C158.405 4.36 159.013 4.49333 159.547 4.76C160.091 5.02667 160.517 5.43733 160.827 5.992C161.136 6.536 161.291 7.24 161.291 8.104V13H159.291V8.36C159.291 7.60267 159.109 7.03733 158.747 6.664C158.395 6.29067 157.899 6.104 157.259 6.104C156.789 6.104 156.373 6.2 156.011 6.392C155.648 6.584 155.365 6.872 155.163 7.256C154.971 7.62933 154.875 8.104 154.875 8.68V13H152.875V1.128H154.875V6.76L154.443 6.056C154.741 5.512 155.173 5.096 155.739 4.808C156.315 4.50933 156.976 4.36 157.723 4.36ZM69.424 23.456H74.992V25.168H69.424V23.456ZM69.584 28.256H75.904V30H67.504V18.8H75.68V20.544H69.584V28.256ZM82.8788 21.36C83.5614 21.36 84.1694 21.4933 84.7028 21.76C85.2468 22.0267 85.6734 22.4373 85.9828 22.992C86.2921 23.536 86.4468 24.24 86.4468 25.104V30H84.4468V25.36C84.4468 24.6027 84.2654 24.0373 83.9028 23.664C83.5508 23.2907 83.0548 23.104 82.4148 23.104C81.9454 23.104 81.5294 23.2 81.1668 23.392C80.8041 23.584 80.5214 23.872 80.3188 24.256C80.1268 24.6293 80.0308 25.104 80.0308 25.68V30H78.0308V21.456H79.9348V23.76L79.5988 23.056C79.8974 22.512 80.3294 22.096 80.8948 21.808C81.4708 21.5093 82.1321 21.36 82.8788 21.36ZM92.1999 30.112C91.2612 30.112 90.5359 29.872 90.0239 29.392C89.5119 28.9013 89.2559 28.1813 89.2559 27.232V19.568H91.2559V27.184C91.2559 27.5893 91.3572 27.904 91.5599 28.128C91.7732 28.352 92.0665 28.464 92.4399 28.464C92.8879 28.464 93.2612 28.3467 93.5599 28.112L94.1199 29.536C93.8852 29.728 93.5972 29.872 93.2559 29.968C92.9145 30.064 92.5625 30.112 92.1999 30.112ZM87.8479 23.12V21.52H93.5439V23.12H87.8479ZM99.4999 30.112C98.5505 30.112 97.7185 29.9253 97.0039 29.552C96.2999 29.168 95.7505 28.6453 95.3559 27.984C94.9719 27.3227 94.7799 26.5707 94.7799 25.728C94.7799 24.8747 94.9665 24.1227 95.3399 23.472C95.7239 22.8107 96.2465 22.2933 96.9079 21.92C97.5799 21.5467 98.3425 21.36 99.1959 21.36C100.028 21.36 100.769 21.5413 101.42 21.904C102.071 22.2667 102.583 22.7787 102.956 23.44C103.329 24.1013 103.516 24.88 103.516 25.776C103.516 25.8613 103.511 25.9573 103.5 26.064C103.5 26.1707 103.495 26.272 103.484 26.368H96.3639V25.04H102.428L101.644 25.456C101.655 24.9653 101.553 24.5333 101.34 24.16C101.127 23.7867 100.833 23.4933 100.46 23.28C100.097 23.0667 99.6759 22.96 99.1959 22.96C98.7052 22.96 98.2732 23.0667 97.8999 23.28C97.5372 23.4933 97.2492 23.792 97.0359 24.176C96.8332 24.5493 96.7319 24.992 96.7319 25.504V25.824C96.7319 26.336 96.8492 26.7893 97.0839 27.184C97.3185 27.5787 97.6492 27.8827 98.0759 28.096C98.5025 28.3093 98.9932 28.416 99.5479 28.416C100.028 28.416 100.46 28.3413 100.844 28.192C101.228 28.0427 101.569 27.808 101.868 27.488L102.94 28.72C102.556 29.168 102.071 29.5147 101.484 29.76C100.908 29.9947 100.247 30.112 99.4999 30.112ZM105.437 30V21.456H107.341V23.808L107.117 23.12C107.373 22.544 107.773 22.1067 108.317 21.808C108.872 21.5093 109.56 21.36 110.381 21.36V23.264C110.296 23.2427 110.216 23.232 110.141 23.232C110.066 23.2213 109.992 23.216 109.917 23.216C109.16 23.216 108.557 23.44 108.109 23.888C107.661 24.3253 107.437 24.9813 107.437 25.856V30H105.437ZM116.814 30.112C116.12 30.112 115.486 29.952 114.91 29.632C114.344 29.312 113.891 28.832 113.55 28.192C113.219 27.5413 113.054 26.72 113.054 25.728C113.054 24.7253 113.214 23.904 113.534 23.264C113.864 22.624 114.312 22.1493 114.878 21.84C115.443 21.52 116.088 21.36 116.814 21.36C117.656 21.36 118.398 21.5413 119.038 21.904C119.688 22.2667 120.2 22.7733 120.574 23.424C120.958 24.0747 121.15 24.8427 121.15 25.728C121.15 26.6133 120.958 27.3867 120.574 28.048C120.2 28.6987 119.688 29.2053 119.038 29.568C118.398 29.9307 117.656 30.112 116.814 30.112ZM112.078 33.104V21.456H113.982V23.472L113.918 25.744L114.078 28.016V33.104H112.078ZM116.59 28.4C117.07 28.4 117.496 28.2933 117.87 28.08C118.254 27.8667 118.558 27.5573 118.782 27.152C119.006 26.7467 119.118 26.272 119.118 25.728C119.118 25.1733 119.006 24.6987 118.782 24.304C118.558 23.8987 118.254 23.5893 117.87 23.376C117.496 23.1627 117.07 23.056 116.59 23.056C116.11 23.056 115.678 23.1627 115.294 23.376C114.91 23.5893 114.606 23.8987 114.382 24.304C114.158 24.6987 114.046 25.1733 114.046 25.728C114.046 26.272 114.158 26.7467 114.382 27.152C114.606 27.5573 114.91 27.8667 115.294 28.08C115.678 28.2933 116.11 28.4 116.59 28.4ZM123.046 30V21.456H124.95V23.808L124.726 23.12C124.982 22.544 125.382 22.1067 125.926 21.808C126.481 21.5093 127.169 21.36 127.99 21.36V23.264C127.905 23.2427 127.825 23.232 127.75 23.232C127.676 23.2213 127.601 23.216 127.526 23.216C126.769 23.216 126.166 23.44 125.718 23.888C125.27 24.3253 125.046 24.9813 125.046 25.856V30H123.046ZM129.687 30V21.456H131.687V30H129.687ZM130.695 20.048C130.322 20.048 130.012 19.9307 129.767 19.696C129.532 19.4613 129.415 19.1787 129.415 18.848C129.415 18.5067 129.532 18.224 129.767 18C130.012 17.7653 130.322 17.648 130.695 17.648C131.068 17.648 131.372 17.76 131.607 17.984C131.852 18.1973 131.975 18.4693 131.975 18.8C131.975 19.152 131.858 19.4507 131.623 19.696C131.388 19.9307 131.079 20.048 130.695 20.048ZM136.952 30.112C136.237 30.112 135.549 30.0213 134.888 29.84C134.237 29.648 133.72 29.4187 133.336 29.152L134.104 27.632C134.488 27.8773 134.947 28.08 135.48 28.24C136.013 28.4 136.547 28.48 137.08 28.48C137.709 28.48 138.163 28.3947 138.44 28.224C138.728 28.0533 138.872 27.824 138.872 27.536C138.872 27.3013 138.776 27.1253 138.584 27.008C138.392 26.88 138.141 26.784 137.832 26.72C137.523 26.656 137.176 26.5973 136.792 26.544C136.419 26.4907 136.04 26.4213 135.656 26.336C135.283 26.24 134.941 26.1067 134.632 25.936C134.323 25.7547 134.072 25.5147 133.88 25.216C133.688 24.9173 133.592 24.5227 133.592 24.032C133.592 23.488 133.747 23.0187 134.056 22.624C134.365 22.2187 134.797 21.9093 135.352 21.696C135.917 21.472 136.584 21.36 137.352 21.36C137.928 21.36 138.509 21.424 139.096 21.552C139.683 21.68 140.168 21.8613 140.552 22.096L139.784 23.616C139.379 23.3707 138.968 23.2053 138.552 23.12C138.147 23.024 137.741 22.976 137.336 22.976C136.728 22.976 136.275 23.0667 135.976 23.248C135.688 23.4293 135.544 23.6587 135.544 23.936C135.544 24.192 135.64 24.384 135.832 24.512C136.024 24.64 136.275 24.7413 136.584 24.816C136.893 24.8907 137.235 24.9547 137.608 25.008C137.992 25.0507 138.371 25.12 138.744 25.216C139.117 25.312 139.459 25.4453 139.768 25.616C140.088 25.776 140.344 26.0053 140.536 26.304C140.728 26.6027 140.824 26.992 140.824 27.472C140.824 28.0053 140.664 28.4693 140.344 28.864C140.035 29.2587 139.592 29.568 139.016 29.792C138.44 30.0053 137.752 30.112 136.952 30.112ZM146.562 30.112C145.613 30.112 144.781 29.9253 144.066 29.552C143.362 29.168 142.813 28.6453 142.418 27.984C142.034 27.3227 141.842 26.5707 141.842 25.728C141.842 24.8747 142.029 24.1227 142.402 23.472C142.786 22.8107 143.309 22.2933 143.97 21.92C144.642 21.5467 145.405 21.36 146.258 21.36C147.09 21.36 147.832 21.5413 148.482 21.904C149.133 22.2667 149.645 22.7787 150.018 23.44C150.392 24.1013 150.578 24.88 150.578 25.776C150.578 25.8613 150.573 25.9573 150.562 26.064C150.562 26.1707 150.557 26.272 150.546 26.368H143.426V25.04H149.49L148.706 25.456C148.717 24.9653 148.616 24.5333 148.402 24.16C148.189 23.7867 147.896 23.4933 147.522 23.28C147.16 23.0667 146.738 22.96 146.258 22.96C145.768 22.96 145.336 23.0667 144.962 23.28C144.6 23.4933 144.312 23.792 144.098 24.176C143.896 24.5493 143.794 24.992 143.794 25.504V25.824C143.794 26.336 143.912 26.7893 144.146 27.184C144.381 27.5787 144.712 27.8827 145.138 28.096C145.565 28.3093 146.056 28.416 146.61 28.416C147.09 28.416 147.522 28.3413 147.906 28.192C148.29 28.0427 148.632 27.808 148.93 27.488L150.002 28.72C149.618 29.168 149.133 29.5147 148.546 29.76C147.97 29.9947 147.309 30.112 146.562 30.112ZM160.585 30.16C159.711 30.16 158.873 30.0373 158.073 29.792C157.273 29.536 156.639 29.2107 156.169 28.816L156.889 27.2C157.337 27.552 157.892 27.8453 158.553 28.08C159.215 28.3147 159.892 28.432 160.585 28.432C161.172 28.432 161.647 28.368 162.009 28.24C162.372 28.112 162.639 27.9413 162.809 27.728C162.98 27.504 163.065 27.2533 163.065 26.976C163.065 26.6347 162.943 26.3627 162.697 26.16C162.452 25.9467 162.132 25.7813 161.737 25.664C161.353 25.536 160.921 25.4187 160.441 25.312C159.972 25.2053 159.497 25.0827 159.017 24.944C158.548 24.7947 158.116 24.608 157.721 24.384C157.337 24.1493 157.023 23.84 156.777 23.456C156.532 23.072 156.409 22.5813 156.409 21.984C156.409 21.376 156.569 20.8213 156.889 20.32C157.22 19.808 157.716 19.4027 158.377 19.104C159.049 18.7947 159.897 18.64 160.921 18.64C161.593 18.64 162.26 18.7253 162.921 18.896C163.583 19.0667 164.159 19.312 164.649 19.632L163.993 21.248C163.492 20.9493 162.975 20.7307 162.441 20.592C161.908 20.4427 161.396 20.368 160.905 20.368C160.329 20.368 159.86 20.4373 159.497 20.576C159.145 20.7147 158.884 20.896 158.713 21.12C158.553 21.344 158.473 21.6 158.473 21.888C158.473 22.2293 158.591 22.5067 158.825 22.72C159.071 22.9227 159.385 23.0827 159.769 23.2C160.164 23.3173 160.601 23.4347 161.081 23.552C161.561 23.6587 162.036 23.7813 162.505 23.92C162.985 24.0587 163.417 24.24 163.801 24.464C164.196 24.688 164.511 24.992 164.745 25.376C164.991 25.76 165.113 26.2453 165.113 26.832C165.113 27.4293 164.948 27.984 164.617 28.496C164.297 28.9973 163.801 29.4027 163.129 29.712C162.457 30.0107 161.609 30.16 160.585 30.16ZM170.824 30.112C169.949 30.112 169.171 29.9253 168.488 29.552C167.805 29.168 167.267 28.6453 166.872 27.984C166.477 27.3227 166.28 26.5707 166.28 25.728C166.28 24.8747 166.477 24.1227 166.872 23.472C167.267 22.8107 167.805 22.2933 168.488 21.92C169.171 21.5467 169.949 21.36 170.824 21.36C171.709 21.36 172.493 21.5467 173.176 21.92C173.869 22.2933 174.408 22.8053 174.792 23.456C175.187 24.1067 175.384 24.864 175.384 25.728C175.384 26.5707 175.187 27.3227 174.792 27.984C174.408 28.6453 173.869 29.168 173.176 29.552C172.493 29.9253 171.709 30.112 170.824 30.112ZM170.824 28.4C171.315 28.4 171.752 28.2933 172.136 28.08C172.52 27.8667 172.819 27.5573 173.032 27.152C173.256 26.7467 173.368 26.272 173.368 25.728C173.368 25.1733 173.256 24.6987 173.032 24.304C172.819 23.8987 172.52 23.5893 172.136 23.376C171.752 23.1627 171.32 23.056 170.84 23.056C170.349 23.056 169.912 23.1627 169.528 23.376C169.155 23.5893 168.856 23.8987 168.632 24.304C168.408 24.6987 168.296 25.1733 168.296 25.728C168.296 26.272 168.408 26.7467 168.632 27.152C168.856 27.5573 169.155 27.8667 169.528 28.08C169.912 28.2933 170.344 28.4 170.824 28.4ZM177.296 30V18.128H179.296V30H177.296ZM185.537 30.112C184.812 30.112 184.172 29.9787 183.617 29.712C183.063 29.4347 182.631 29.0187 182.321 28.464C182.012 27.8987 181.857 27.1893 181.857 26.336V21.456H183.857V26.064C183.857 26.832 184.028 27.408 184.369 27.792C184.721 28.1653 185.217 28.352 185.857 28.352C186.327 28.352 186.732 28.256 187.073 28.064C187.425 27.872 187.697 27.584 187.889 27.2C188.092 26.816 188.193 26.3413 188.193 25.776V21.456H190.193V30H188.289V27.696L188.625 28.4C188.337 28.9547 187.916 29.3813 187.361 29.68C186.807 29.968 186.199 30.112 185.537 30.112ZM196.028 30.112C195.089 30.112 194.364 29.872 193.852 29.392C193.34 28.9013 193.084 28.1813 193.084 27.232V19.568H195.084V27.184C195.084 27.5893 195.185 27.904 195.388 28.128C195.601 28.352 195.895 28.464 196.268 28.464C196.716 28.464 197.089 28.3467 197.388 28.112L197.948 29.536C197.713 29.728 197.425 29.872 197.084 29.968C196.743 30.064 196.391 30.112 196.028 30.112ZM191.676 23.12V21.52H197.372V23.12H191.676ZM199.593 30V21.456H201.593V30H199.593ZM200.601 20.048C200.228 20.048 199.919 19.9307 199.673 19.696C199.439 19.4613 199.321 19.1787 199.321 18.848C199.321 18.5067 199.439 18.224 199.673 18C199.919 17.7653 200.228 17.648 200.601 17.648C200.975 17.648 201.279 17.76 201.513 17.984C201.759 18.1973 201.881 18.4693 201.881 18.8C201.881 19.152 201.764 19.4507 201.529 19.696C201.295 19.9307 200.985 20.048 200.601 20.048ZM208.058 30.112C207.184 30.112 206.405 29.9253 205.722 29.552C205.04 29.168 204.501 28.6453 204.106 27.984C203.712 27.3227 203.514 26.5707 203.514 25.728C203.514 24.8747 203.712 24.1227 204.106 23.472C204.501 22.8107 205.04 22.2933 205.722 21.92C206.405 21.5467 207.184 21.36 208.058 21.36C208.944 21.36 209.728 21.5467 210.41 21.92C211.104 22.2933 211.642 22.8053 212.026 23.456C212.421 24.1067 212.618 24.864 212.618 25.728C212.618 26.5707 212.421 27.3227 212.026 27.984C211.642 28.6453 211.104 29.168 210.41 29.552C209.728 29.9253 208.944 30.112 208.058 30.112ZM208.058 28.4C208.549 28.4 208.986 28.2933 209.37 28.08C209.754 27.8667 210.053 27.5573 210.266 27.152C210.49 26.7467 210.602 26.272 210.602 25.728C210.602 25.1733 210.49 24.6987 210.266 24.304C210.053 23.8987 209.754 23.5893 209.37 23.376C208.986 23.1627 208.554 23.056 208.074 23.056C207.584 23.056 207.146 23.1627 206.762 23.376C206.389 23.5893 206.09 23.8987 205.866 24.304C205.642 24.6987 205.53 25.1733 205.53 25.728C205.53 26.272 205.642 26.7467 205.866 27.152C206.09 27.5573 206.389 27.8667 206.762 28.08C207.146 28.2933 207.578 28.4 208.058 28.4ZM219.379 21.36C220.061 21.36 220.669 21.4933 221.203 21.76C221.747 22.0267 222.173 22.4373 222.483 22.992C222.792 23.536 222.947 24.24 222.947 25.104V30H220.947V25.36C220.947 24.6027 220.765 24.0373 220.403 23.664C220.051 23.2907 219.555 23.104 218.915 23.104C218.445 23.104 218.029 23.2 217.667 23.392C217.304 23.584 217.021 23.872 216.819 24.256C216.627 24.6293 216.531 25.104 216.531 25.68V30H214.531V21.456H216.435V23.76L216.099 23.056C216.397 22.512 216.829 22.096 217.395 21.808C217.971 21.5093 218.632 21.36 219.379 21.36ZM228.124 30.112C227.409 30.112 226.721 30.0213 226.06 29.84C225.409 29.648 224.892 29.4187 224.508 29.152L225.276 27.632C225.66 27.8773 226.119 28.08 226.652 28.24C227.185 28.4 227.719 28.48 228.252 28.48C228.881 28.48 229.335 28.3947 229.612 28.224C229.9 28.0533 230.044 27.824 230.044 27.536C230.044 27.3013 229.948 27.1253 229.756 27.008C229.564 26.88 229.313 26.784 229.004 26.72C228.695 26.656 228.348 26.5973 227.964 26.544C227.591 26.4907 227.212 26.4213 226.828 26.336C226.455 26.24 226.113 26.1067 225.804 25.936C225.495 25.7547 225.244 25.5147 225.052 25.216C224.86 24.9173 224.764 24.5227 224.764 24.032C224.764 23.488 224.919 23.0187 225.228 22.624C225.537 22.2187 225.969 21.9093 226.524 21.696C227.089 21.472 227.756 21.36 228.524 21.36C229.1 21.36 229.681 21.424 230.268 21.552C230.855 21.68 231.34 21.8613 231.724 22.096L230.956 23.616C230.551 23.3707 230.14 23.2053 229.724 23.12C229.319 23.024 228.913 22.976 228.508 22.976C227.9 22.976 227.447 23.0667 227.148 23.248C226.86 23.4293 226.716 23.6587 226.716 23.936C226.716 24.192 226.812 24.384 227.004 24.512C227.196 24.64 227.447 24.7413 227.756 24.816C228.065 24.8907 228.407 24.9547 228.78 25.008C229.164 25.0507 229.543 25.12 229.916 25.216C230.289 25.312 230.631 25.4453 230.94 25.616C231.26 25.776 231.516 26.0053 231.708 26.304C231.9 26.6027 231.996 26.992 231.996 27.472C231.996 28.0053 231.836 28.4693 231.516 28.864C231.207 29.2587 230.764 29.568 230.188 29.792C229.612 30.0053 228.924 30.112 228.124 30.112Z" fill="black"/>
<defs>
<linearGradient id="paint0_linear_300_2757" x1="31" y1="15.9997" x2="4" y2="15.9997" gradientUnits="userSpaceOnUse">
<stop stop-color="#2593B7"/>
<stop offset="0.185" stop-color="#2490B4"/>
<stop offset="0.725" stop-color="#133852"/>
</linearGradient>
<linearGradient id="paint1_linear_300_2757" x1="31" y1="16.0003" x2="58" y2="16.0003" gradientUnits="userSpaceOnUse">
<stop stop-color="#2593B7"/>
<stop offset="0.185" stop-color="#2490B4"/>
<stop offset="0.725" stop-color="#133852"/>
</linearGradient>
<clipPath id="clip0_300_2757">
<rect width="62" height="30" fill="white" transform="translate(0 1)"/>
</clipPath>
</defs>
</svg>
